# xmcd
#
# Track frame offsets:
#	182
#	13012
#	24652
#	41992
#	54320
#	72375
#	87127
#	101290
#	112205
#	137410
#	148455
#	161670
#	175022
#	189477
#	204412
#	217792
#
# Disc length: 3066
#
# Revision: 1
# Processed by: cddbd v1.5.1PL0 Copyright (c) Steve Scherf et al.
# Submitted via: EasyCDDAExtractor 4.6.9.1
# Normalized: r0:TDELIM( - )
#
DISCID=e10bf810
DTITLE=Various Artist - Essential Blues
DYEAR=1900
DGENRE=blues
TTITLE0=Muddy Waters - Forty Days And Forty Nights
TTITLE1=Memphis Slim - Let The Good Times Roll Creole
TTITLE2=Jimmy Reed - Cry Before I Go
TTITLE3=Howlin' Wolf - I Ain't Superstitious
TTITLE4=Tommy Tucker - Hi Heel Sneakers
TTITLE5=Billy Boy Arnold With Tony McPhee - Don't Stay Out All Night
TTITLE6=John Lee Hooker - Stomp Boogie
TTITLE7=Elmore James - Coming Home
TTITLE8=Howlin' Wolf - Little Red Rooster
TTITLE9=Memphis Slim - Lonesome
TTITLE10=Elmore James - Dust My Broom
TTITLE11=Muddy Waters - Rollin' And Tumblin'
TTITLE12=Billy Boy Arnold With Tony McPhee - I Wish You Would
TTITLE13=Tommy Tucker - Drunk
TTITLE14=Jimmy Reed - Hard Walking Hanna
TTITLE15=John Lee Hooker - House Rent Boogie
EXTD=
EXTT0=
EXTT1=
EXTT2=
EXTT3=
EXTT4=
EXTT5=
EXTT6=
EXTT7=
EXTT8=
EXTT9=
EXTT10=
EXTT11=
EXTT12=
EXTT13=
EXTT14=
EXTT15=
PLAYORDER=
